<svg xmlns="http://www.w3.org/2000/svg" width="16" height="16" viewBox="0 0 16 16" fill="none">
  <g clip-path="url(#clip0_42_348)">
    <path d="M1 4V2.5C1 2.10218 1.21071 1.72064 1.58579 1.43934C1.96086 1.15804 2.46957 1 3 1H5" stroke="#3B82F6" stroke-width="1.5" stroke-linecap="round" stroke-linejoin="round"/>
    <path d="M1 11V13C1 13.5304 1.21071 14.0391 1.58579 14.4142C1.96086 14.7893 2.46957 15 3 15H5" stroke="#3B82F6" stroke-width="1.5" stroke-linecap="round" stroke-linejoin="round"/>
    <path d="M11 1H13C13.5304 1 14.0391 1.15804 14.4142 1.43934C14.7893 1.72064 15 2.10218 15 2.5V4" stroke="#3B82F6" stroke-width="1.5" stroke-linecap="round" stroke-linejoin="round"/>
    <path d="M11 15H13C13.5304 15 14.0391 14.7893 14.4142 14.4142C14.7893 14.0391 15 13.5304 15 13V11" stroke="#3B82F6" stroke-width="1.5" stroke-linecap="round" stroke-linejoin="round"/>
  </g>
  <defs>
    <clipPath id="clip0_42_348">
      <rect width="16" height="16" fill="white"/>
    </clipPath>
  </defs>
</svg>