<svg xmlns="http://www.w3.org/2000/svg" width="16" height="16" viewBox="0 0 16 16" fill="none">
  <path d="M2.66663 11.9872V6.47173C2.66663 4.04948 2.66663 2.83836 3.44767 2.08587C4.22873 1.33337 5.4858 1.33337 7.99996 1.33337C10.5141 1.33337 11.7712 1.33337 12.5522 2.08587C13.3333 2.83836 13.3333 4.04948 13.3333 6.47173V11.9872C13.3333 13.5245 13.3333 14.2931 12.8181 14.5682C11.8203 15.101 9.94876 13.3235 9.05996 12.7883C8.54449 12.4779 8.28676 12.3227 7.99996 12.3227C7.71316 12.3227 7.45543 12.4779 6.93996 12.7883C6.05116 13.3235 4.17961 15.101 3.18186 14.5682C2.66663 14.2931 2.66663 13.5245 2.66663 11.9872Z" stroke="white" stroke-width="1.5" stroke-linecap="round" stroke-linejoin="round"/>
</svg>