<svg xmlns="http://www.w3.org/2000/svg" width="16" height="16" viewBox="0 0 16 16" fill="none">
  <path d="M15 8L0.999999 8M14.2222 1C14.4285 1 14.6263 1.08194 14.7722 1.22781C14.9181 1.37367 15 1.5715 15 1.77778L15 14.2222C15 14.4285 14.9181 14.6263 14.7722 14.7722C14.6263 14.9181 14.4285 15 14.2222 15L1.77778 15C1.5715 15 1.37367 14.9181 1.2278 14.7722C1.08194 14.6263 0.999999 14.4285 0.999999 14.2222L1 1.77778C1 1.5715 1.08194 1.37367 1.2278 1.22781C1.37367 1.08194 1.5715 0.999999 1.77778 0.999999L14.2222 1Z" stroke="#3B82F6" stroke-width="1.5" stroke-linecap="round" stroke-linejoin="round"/>
</svg>